# xmcd
#
# Track frame offsets: 
#        150
#        14599
#        26572
#        44129
#        55596
#        70187
#        85536
#        102643
#        118414
#        135480
#        159013
#        175197
#        192925
#        206786
#
# Disc length: 3004 seconds
#
# Revision: 0
# Processed by: cddbd v1.4PL0 Copyright (c) Steve Scherf et al.
# Submitted via: ExactAudioCopy v0.95a3
#
DISCID=c10bba0e
DTITLE=Stragglers - Carolina Boogie
DYEAR=2003
DGENRE=Blues
TTITLE0=New Carolina Boogie
TTITLE1=That's What I Like About the South
TTITLE2=Blues for Dixie
TTITLE3=Sway
TTITLE4=Choo-Choo Ch'Boogie
TTITLE5=Hot Rod Rag
TTITLE6=Let Me Go Home Whiskey
TTITLE7=Drivin' Nails in My Coffin
TTITLE8=Guajira
TTITLE9=Brain Cloudy Blues
TTITLE10=Roly Poly
TTITLE11=Just Dropped In
TTITLE12=House of Blue Lights
TTITLE13=Route 66
EXTD=
EXTT0=
EXTT1=
EXTT2=
EXTT3=
EXTT4=
EXTT5=
EXTT6=
EXTT7=
EXTT8=
EXTT9=
EXTT10=
EXTT11=
EXTT12=
EXTT13=
PLAYORDER=
